<svg width="329" height="41" viewBox="0 0 329 41" fill="none" xmlns="http://www.w3.org/2000/svg">
<path d="M16.128 29.872L20.448 12.928H31.776L22.752 40H9.456L0.432 12.928H11.76L16.128 29.872ZM60.8111 26.224C60.8111 26.96 60.7631 27.664 60.6671 28.336H43.5311C43.6911 30.672 44.6671 31.84 46.4591 31.84C47.6111 31.84 48.4431 31.312 48.9551 30.256H60.2351C59.8511 32.176 59.0351 33.904 57.7871 35.44C56.5711 36.944 55.0191 38.144 53.1311 39.04C51.2751 39.904 49.2271 40.336 46.9871 40.336C44.2991 40.336 41.8991 39.776 39.7871 38.656C37.7071 37.536 36.0751 35.936 34.8911 33.856C33.7391 31.744 33.1631 29.28 33.1631 26.464C33.1631 23.648 33.7391 21.2 34.8911 19.12C36.0751 17.008 37.7071 15.392 39.7871 14.272C41.8991 13.152 44.2991 12.592 46.9871 12.592C49.6751 12.592 52.0591 13.152 54.1391 14.272C56.2511 15.36 57.8831 16.928 59.0351 18.976C60.2191 21.024 60.8111 23.44 60.8111 26.224ZM50.0111 23.68C50.0111 22.784 49.7231 22.112 49.1471 21.664C48.5711 21.184 47.8511 20.944 46.9871 20.944C45.0991 20.944 43.9951 21.856 43.6751 23.68H50.0111ZM81.0293 30.928V40H76.9973C69.5733 40 65.8613 36.304 65.8613 28.912V21.808H62.5013V12.928H65.8613V6.4H76.5173V12.928H80.9333V21.808H76.5173V29.104C76.5173 29.744 76.6613 30.208 76.9493 30.496C77.2693 30.784 77.7813 30.928 78.4853 30.928H81.0293ZM98.6198 10.768C96.7638 10.768 95.2758 10.272 94.1558 9.28C93.0358 8.288 92.4758 7.04 92.4758 5.536C92.4758 4 93.0358 2.736 94.1558 1.744C95.2758 0.719997 96.7638 0.207997 98.6198 0.207997C100.444 0.207997 101.916 0.719997 103.036 1.744C104.156 2.736 104.716 4 104.716 5.536C104.716 7.04 104.156 8.288 103.036 9.28C101.916 10.272 100.444 10.768 98.6198 10.768ZM103.9 12.928V40H93.2438V12.928H103.9ZM127.673 12.736C130.777 12.736 133.193 13.776 134.921 15.856C136.681 17.936 137.561 20.752 137.561 24.304V40H126.953V25.648C126.953 24.368 126.601 23.36 125.897 22.624C125.225 21.856 124.313 21.472 123.161 21.472C121.977 21.472 121.049 21.856 120.377 22.624C119.705 23.36 119.369 24.368 119.369 25.648V40H108.713V12.928H119.369V17.056C120.201 15.776 121.305 14.736 122.681 13.936C124.089 13.136 125.753 12.736 127.673 12.736ZM159.029 30.928V40H154.997C147.573 40 143.861 36.304 143.861 28.912V21.808H140.501V12.928H143.861V6.4H154.517V12.928H158.933V21.808H154.517V29.104C154.517 29.744 154.661 30.208 154.949 30.496C155.269 30.784 155.781 30.928 156.485 30.928H159.029ZM189.296 26.224C189.296 26.96 189.248 27.664 189.152 28.336H172.016C172.176 30.672 173.152 31.84 174.944 31.84C176.096 31.84 176.928 31.312 177.44 30.256H188.72C188.336 32.176 187.52 33.904 186.272 35.44C185.056 36.944 183.504 38.144 181.616 39.04C179.76 39.904 177.712 40.336 175.472 40.336C172.784 40.336 170.384 39.776 168.272 38.656C166.192 37.536 164.56 35.936 163.376 33.856C162.224 31.744 161.648 29.28 161.648 26.464C161.648 23.648 162.224 21.2 163.376 19.12C164.56 17.008 166.192 15.392 168.272 14.272C170.384 13.152 172.784 12.592 175.472 12.592C178.16 12.592 180.544 13.152 182.624 14.272C184.736 15.36 186.368 16.928 187.52 18.976C188.704 21.024 189.296 23.44 189.296 26.224ZM178.496 23.68C178.496 22.784 178.208 22.112 177.632 21.664C177.056 21.184 176.336 20.944 175.472 20.944C173.584 20.944 172.48 21.856 172.16 23.68H178.496ZM211.626 12.736C214.73 12.736 217.146 13.776 218.874 15.856C220.634 17.936 221.514 20.752 221.514 24.304V40H210.906V25.648C210.906 24.368 210.554 23.36 209.85 22.624C209.178 21.856 208.266 21.472 207.114 21.472C205.93 21.472 205.002 21.856 204.33 22.624C203.658 23.36 203.322 24.368 203.322 25.648V40H192.666V12.928H203.322V17.056C204.154 15.776 205.258 14.736 206.634 13.936C208.042 13.136 209.706 12.736 211.626 12.736ZM238.182 40.336C235.622 40.336 233.35 39.92 231.366 39.088C229.414 38.256 227.862 37.104 226.71 35.632C225.558 34.16 224.902 32.496 224.742 30.64H234.966C235.094 31.44 235.43 32.032 235.974 32.416C236.55 32.8 237.27 32.992 238.134 32.992C238.678 32.992 239.11 32.88 239.43 32.656C239.75 32.4 239.91 32.096 239.91 31.744C239.91 31.136 239.574 30.704 238.902 30.448C238.23 30.192 237.094 29.904 235.494 29.584C233.542 29.2 231.926 28.784 230.646 28.336C229.398 27.888 228.294 27.12 227.334 26.032C226.406 24.944 225.942 23.44 225.942 21.52C225.942 19.856 226.374 18.352 227.238 17.008C228.134 15.632 229.446 14.56 231.174 13.792C232.902 12.992 234.998 12.592 237.462 12.592C241.11 12.592 243.958 13.488 246.006 15.28C248.086 17.072 249.334 19.408 249.75 22.288H240.294C240.134 21.552 239.798 20.992 239.286 20.608C238.774 20.192 238.086 19.984 237.222 19.984C236.678 19.984 236.262 20.096 235.974 20.32C235.686 20.512 235.542 20.816 235.542 21.232C235.542 21.776 235.878 22.192 236.55 22.48C237.222 22.736 238.294 23.008 239.766 23.296C241.718 23.68 243.366 24.112 244.71 24.592C246.054 25.072 247.222 25.904 248.214 27.088C249.206 28.24 249.702 29.84 249.702 31.888C249.702 33.488 249.238 34.928 248.31 36.208C247.382 37.488 246.038 38.496 244.278 39.232C242.55 39.968 240.518 40.336 238.182 40.336ZM259.307 10.768C257.451 10.768 255.963 10.272 254.843 9.28C253.723 8.288 253.163 7.04 253.163 5.536C253.163 4 253.723 2.736 254.843 1.744C255.963 0.719997 257.451 0.207997 259.307 0.207997C261.131 0.207997 262.603 0.719997 263.723 1.744C264.843 2.736 265.403 4 265.403 5.536C265.403 7.04 264.843 8.288 263.723 9.28C262.603 10.272 261.131 10.768 259.307 10.768ZM264.587 12.928V40H253.931V12.928H264.587ZM283.128 29.872L287.448 12.928H298.776L289.752 40H276.456L267.432 12.928H278.76L283.128 29.872ZM314.467 40.336C311.747 40.336 309.299 39.776 307.123 38.656C304.947 37.536 303.235 35.936 301.987 33.856C300.771 31.744 300.163 29.28 300.163 26.464C300.163 23.648 300.771 21.2 301.987 19.12C303.235 17.008 304.947 15.392 307.123 14.272C309.299 13.152 311.747 12.592 314.467 12.592C317.187 12.592 319.635 13.152 321.811 14.272C323.987 15.392 325.683 17.008 326.899 19.12C328.147 21.2 328.771 23.648 328.771 26.464C328.771 29.28 328.147 31.744 326.899 33.856C325.683 35.936 323.987 37.536 321.811 38.656C319.635 39.776 317.187 40.336 314.467 40.336ZM314.467 31.12C315.459 31.12 316.291 30.736 316.963 29.968C317.635 29.168 317.971 28 317.971 26.464C317.971 24.928 317.635 23.776 316.963 23.008C316.291 22.208 315.459 21.808 314.467 21.808C313.475 21.808 312.643 22.208 311.971 23.008C311.299 23.776 310.963 24.928 310.963 26.464C310.963 28 311.283 29.168 311.923 29.968C312.595 30.736 313.443 31.12 314.467 31.12Z" fill="#A32E39"/>
</svg>
